<svg xmlns="http://www.w3.org/2000/svg" xml:space="preserve" fill-rule="evenodd" stroke-linecap="round" stroke-linejoin="round" clip-rule="evenodd" viewBox="0 0 512 512"><path fill="#dce6eb" d="M0 0h512v512H0z"/><path fill="#d18a4b" fill-rule="nonzero" stroke="#1e1e24" stroke-width="17.4" d="M358 131c15-46 102-21 118-7 2 52-29 83-71 102"/><path fill="#eca1a6" fill-rule="nonzero" d="M378 147c11-31 78-27 89-17 1 43-27 70-56 83"/><path fill="#d18a4b" fill-rule="nonzero" stroke="#1e1e24" stroke-width="17.4" d="M154 131c-15-46-102-21-118-7-2 52 29 83 71 102"/><path fill="#eca1a6" fill-rule="nonzero" d="M134 147c-11-31-78-27-89-17-1 43 27 70 56 83"/><path fill="#d18a4b" fill-rule="nonzero" stroke="#1e1e24" stroke-width="17.4" d="M256 91c120 0 172 139 155 244-17 87-96 122-155 122s-138-35-155-122C84 230 136 91 256 91"/><path fill="#fff" fill-rule="nonzero" d="M200 317c4-156 25-226 56-226s52 70 56 226c0 70-32 114-56 114s-56-44-56-114"/><ellipse cx="256" cy="334.8" fill="#fff" rx="139.3" ry="113.2"/><circle cx="155" cy="247.7" r="24.4" fill="#1e1e24"/><circle cx="148" cy="240.8" r="7" fill="#fff"/><circle cx="357" cy="247.7" r="24.4" fill="#1e1e24"/><circle cx="350" cy="240.8" r="7" fill="#fff"/><path fill="#1e1e24" fill-rule="nonzero" stroke="#1e1e24" stroke-width="17.4" d="M176 326c0-43 160-43 160 0 0 44-45 61-80 61s-80-17-80-61"/><path fill="#222e50" fill-rule="nonzero" stroke="#1e1e24" stroke-width="17.4" d="M163 106q-1-28 21-46c17-14 44-21 72-21s55 7 72 21q22 18 21 46c0 9-8 16-16 16H179c-8 0-16-7-16-16"/></svg>